# xmcd
#
# Track frame offsets:
#	151
#	15016
#	27173
#	39364
#	52317
#	65724
#	75567
#	87862
#	97987
#	113276
#
# Disc length: 1723 seconds
#
# Revision: 0
# Processed by: cddbd v1.5.2PL0 Copyright (c) Steve Scherf et al.
# Submitted via: audiograbber 1.83.01
#
DISCID=6806b90a
DTITLE=Ely Silva e Degleir 1 - Carro e Carreiro
DYEAR=1900
DGENRE=Sertanejo
TTITLE0=Caro e carreiro
TTITLE1=Cão de guarda
TTITLE2=Sol de verão
TTITLE3=Meu paraíso
TTITLE4=Resto de paixão
TTITLE5=Amor, paixão e alegria
TTITLE6=Riquezas do sertão
TTITLE7=Velha estrada
TTITLE8=Velha estrada
TTITLE9=Prisioneiro da saudade
EXTD=
EXTT0=
EXTT1=
EXTT2=
EXTT3=
EXTT4=
EXTT5=
EXTT6=
EXTT7=
EXTT8=
EXTT9=
PLAYORDER=
